<svg xmlns="http://www.w3.org/2000/svg" xmlns:xlink="http://www.w3.org/1999/xlink" width="1920" zoomAndPan="magnify" viewBox="0 0 1440 809.999993" height="1080" preserveAspectRatio="xMidYMid meet" version="1.0"><defs><clipPath id="b8780b0405"><path d="M 127 0 L 494.636719 0 L 494.636719 810 L 127 810 Z M 127 0 " clip-rule="nonzero"/></clipPath></defs><path fill="#2d4feb" d="M 313.59375 146.785156 C 313.59375 147.847656 313.566406 148.910156 313.515625 149.972656 C 313.460938 151.035156 313.382812 152.09375 313.28125 153.152344 C 313.175781 154.210938 313.046875 155.265625 312.890625 156.316406 C 312.734375 157.367188 312.550781 158.417969 312.34375 159.457031 C 312.136719 160.5 311.90625 161.539062 311.644531 162.570312 C 311.386719 163.601562 311.105469 164.625 310.796875 165.644531 C 310.488281 166.660156 310.152344 167.671875 309.796875 168.671875 C 309.4375 169.671875 309.054688 170.664062 308.648438 171.644531 C 308.242188 172.628906 307.808594 173.601562 307.355469 174.5625 C 306.902344 175.523438 306.421875 176.472656 305.921875 177.410156 C 305.421875 178.347656 304.898438 179.273438 304.351562 180.183594 C 303.804688 181.097656 303.234375 181.996094 302.644531 182.878906 C 302.054688 183.761719 301.441406 184.632812 300.808594 185.484375 C 300.175781 186.339844 299.519531 187.175781 298.847656 188 C 298.171875 188.820312 297.476562 189.625 296.761719 190.414062 C 296.050781 191.203125 295.316406 191.972656 294.566406 192.722656 C 293.8125 193.476562 293.042969 194.207031 292.253906 194.921875 C 291.46875 195.636719 290.664062 196.332031 289.839844 197.003906 C 289.019531 197.679688 288.179688 198.332031 287.328125 198.964844 C 286.472656 199.601562 285.605469 200.210938 284.71875 200.800781 C 283.835938 201.394531 282.9375 201.960938 282.027344 202.507812 C 281.113281 203.054688 280.1875 203.578125 279.25 204.082031 C 278.3125 204.582031 277.363281 205.058594 276.402344 205.515625 C 275.441406 205.96875 274.46875 206.398438 273.488281 206.804688 C 272.503906 207.214844 271.515625 207.59375 270.511719 207.953125 C 269.511719 208.3125 268.503906 208.644531 267.484375 208.953125 C 266.46875 209.261719 265.445312 209.546875 264.410156 209.804688 C 263.378906 210.0625 262.34375 210.296875 261.300781 210.503906 C 260.257812 210.710938 259.210938 210.890625 258.160156 211.046875 C 257.105469 211.203125 256.050781 211.335938 254.996094 211.4375 C 253.9375 211.542969 252.875 211.621094 251.8125 211.671875 C 250.753906 211.726562 249.691406 211.75 248.625 211.75 C 247.5625 211.75 246.5 211.726562 245.4375 211.671875 C 244.375 211.621094 243.316406 211.542969 242.257812 211.4375 C 241.199219 211.335938 240.144531 211.203125 239.09375 211.046875 C 238.042969 210.890625 236.996094 210.710938 235.953125 210.503906 C 234.910156 210.296875 233.871094 210.0625 232.839844 209.804688 C 231.808594 209.546875 230.785156 209.261719 229.765625 208.953125 C 228.75 208.644531 227.742188 208.3125 226.738281 207.953125 C 225.738281 207.59375 224.746094 207.214844 223.765625 206.804688 C 222.78125 206.398438 221.808594 205.96875 220.847656 205.515625 C 219.886719 205.058594 218.9375 204.582031 218 204.082031 C 217.0625 203.578125 216.136719 203.054688 215.226562 202.507812 C 214.316406 201.960938 213.417969 201.394531 212.53125 200.800781 C 211.648438 200.210938 210.78125 199.601562 209.925781 198.964844 C 209.070312 198.332031 208.234375 197.679688 207.410156 197.003906 C 206.589844 196.332031 205.785156 195.636719 204.996094 194.921875 C 204.210938 194.207031 203.441406 193.476562 202.6875 192.722656 C 201.9375 191.972656 201.203125 191.203125 200.488281 190.414062 C 199.773438 189.625 199.082031 188.820312 198.40625 188 C 197.730469 187.175781 197.078125 186.339844 196.445312 185.484375 C 195.8125 184.632812 195.199219 183.761719 194.609375 182.878906 C 194.019531 181.996094 193.449219 181.097656 192.902344 180.183594 C 192.355469 179.273438 191.832031 178.347656 191.332031 177.410156 C 190.828125 176.472656 190.351562 175.523438 189.898438 174.5625 C 189.441406 173.601562 189.011719 172.628906 188.605469 171.644531 C 188.199219 170.664062 187.816406 169.671875 187.457031 168.671875 C 187.097656 167.671875 186.765625 166.660156 186.457031 165.644531 C 186.148438 164.625 185.863281 163.601562 185.605469 162.570312 C 185.347656 161.539062 185.113281 160.5 184.90625 159.457031 C 184.699219 158.417969 184.519531 157.367188 184.363281 156.316406 C 184.207031 155.265625 184.078125 154.210938 183.972656 153.152344 C 183.867188 152.09375 183.789062 151.035156 183.738281 149.972656 C 183.683594 148.910156 183.660156 147.847656 183.660156 146.785156 C 183.660156 145.722656 183.683594 144.660156 183.738281 143.597656 C 183.789062 142.535156 183.867188 141.476562 183.972656 140.417969 C 184.078125 139.359375 184.207031 138.304688 184.363281 137.25 C 184.519531 136.199219 184.699219 135.152344 184.90625 134.109375 C 185.113281 133.066406 185.347656 132.03125 185.605469 131 C 185.863281 129.96875 186.148438 128.941406 186.457031 127.925781 C 186.765625 126.910156 187.097656 125.898438 187.457031 124.898438 C 187.816406 123.898438 188.199219 122.90625 188.605469 121.921875 C 189.011719 120.941406 189.441406 119.96875 189.898438 119.007812 C 190.351562 118.046875 190.828125 117.097656 191.332031 116.160156 C 191.832031 115.222656 192.355469 114.296875 192.902344 113.386719 C 193.449219 112.472656 194.019531 111.574219 194.609375 110.691406 C 195.199219 109.808594 195.8125 108.9375 196.445312 108.082031 C 197.078125 107.230469 197.730469 106.390625 198.40625 105.570312 C 199.082031 104.75 199.773438 103.941406 200.488281 103.15625 C 201.203125 102.367188 201.9375 101.597656 202.6875 100.847656 C 203.441406 100.09375 204.210938 99.359375 204.996094 98.648438 C 205.785156 97.933594 206.589844 97.238281 207.410156 96.566406 C 208.234375 95.890625 209.070312 95.234375 209.925781 94.601562 C 210.78125 93.96875 211.648438 93.355469 212.53125 92.765625 C 213.417969 92.175781 214.316406 91.605469 215.226562 91.0625 C 216.136719 90.515625 217.0625 89.988281 218 89.488281 C 218.9375 88.988281 219.886719 88.511719 220.847656 88.054688 C 221.808594 87.601562 222.78125 87.167969 223.765625 86.761719 C 224.746094 86.355469 225.738281 85.972656 226.738281 85.617188 C 227.742188 85.257812 228.75 84.921875 229.765625 84.613281 C 230.785156 84.304688 231.808594 84.023438 232.839844 83.765625 C 233.871094 83.507812 234.910156 83.273438 235.953125 83.066406 C 236.996094 82.859375 238.042969 82.675781 239.09375 82.519531 C 240.144531 82.363281 241.199219 82.234375 242.257812 82.128906 C 243.316406 82.027344 244.375 81.949219 245.4375 81.894531 C 246.5 81.84375 247.5625 81.816406 248.625 81.816406 C 249.691406 81.816406 250.753906 81.84375 251.8125 81.894531 C 252.875 81.949219 253.9375 82.027344 254.996094 82.128906 C 256.050781 82.234375 257.105469 82.363281 258.160156 82.519531 C 259.210938 82.675781 260.257812 82.859375 261.300781 83.066406 C 262.34375 83.273438 263.378906 83.507812 264.410156 83.765625 C 265.445312 84.023438 266.46875 84.304688 267.484375 84.613281 C 268.503906 84.921875 269.511719 85.257812 270.511719 85.617188 C 271.515625 85.972656 272.503906 86.355469 273.488281 86.761719 C 274.46875 87.167969 275.441406 87.601562 276.402344 88.054688 C 277.363281 88.511719 278.3125 88.988281 279.25 89.488281 C 280.1875 89.988281 281.113281 90.515625 282.027344 91.0625 C 282.9375 91.605469 283.835938 92.175781 284.71875 92.765625 C 285.605469 93.355469 286.472656 93.96875 287.328125 94.601562 C 288.179688 95.234375 289.019531 95.890625 289.839844 96.566406 C 290.664062 97.238281 291.46875 97.933594 292.253906 98.648438 C 293.042969 99.359375 293.8125 100.09375 294.566406 100.847656 C 295.316406 101.597656 296.050781 102.367188 296.761719 103.15625 C 297.476562 103.941406 298.171875 104.75 298.847656 105.570312 C 299.519531 106.390625 300.175781 107.230469 300.808594 108.082031 C 301.441406 108.9375 302.054688 109.808594 302.644531 110.691406 C 303.234375 111.574219 303.804688 112.472656 304.351562 113.386719 C 304.898438 114.296875 305.421875 115.222656 305.921875 116.160156 C 306.421875 117.097656 306.902344 118.046875 307.355469 119.007812 C 307.808594 119.96875 308.242188 120.941406 308.648438 121.921875 C 309.054688 122.90625 309.4375 123.898438 309.796875 124.898438 C 310.152344 125.898438 310.488281 126.910156 310.796875 127.925781 C 311.105469 128.941406 311.386719 129.96875 311.644531 131 C 311.90625 132.03125 312.136719 133.066406 312.34375 134.109375 C 312.550781 135.152344 312.734375 136.199219 312.890625 137.253906 C 313.046875 138.304688 313.175781 139.359375 313.28125 140.417969 C 313.382812 141.476562 313.460938 142.535156 313.515625 143.597656 C 313.566406 144.660156 313.59375 145.722656 313.59375 146.785156 Z M 313.59375 146.785156 " fill-opacity="1" fill-rule="nonzero"/><g clip-path="url(#b8780b0405)"><path fill="#2d4feb" d="M 129.382812 346.691406 C 125.882812 373.65625 126.445312 400.855469 130.519531 435.875 C 139.554688 482.363281 171.417969 487.136719 197.878906 486.800781 C 207.355469 486.679688 214.941406 486.226562 220.679688 483.859375 C 220.699219 483.855469 220.71875 483.851562 220.738281 483.847656 L 266.535156 472.527344 L 287.53125 585.722656 C 290.75 603.097656 305.917969 615.242188 322.976562 615.242188 C 325.160156 615.238281 327.375 615.039062 329.597656 614.628906 C 349.199219 610.992188 362.140625 592.15625 358.503906 572.558594 L 330.53125 421.722656 C 328.714844 411.949219 322.953125 403.355469 314.597656 397.96875 C 306.242188 392.582031 296.039062 390.882812 286.382812 393.265625 L 232.191406 406.660156 C 232.75 389.492188 234.859375 372.09375 237.550781 355.382812 C 239.902344 340.800781 242.703125 326.746094 245.320312 313.832031 L 277.789062 351.617188 C 282.179688 356.726562 288.578125 359.660156 295.308594 359.660156 C 295.359375 359.660156 295.410156 359.660156 295.460938 359.660156 C 302.246094 359.617188 308.667969 356.589844 313.023438 351.386719 L 345.34375 312.761719 L 356.707031 299.175781 L 337.285156 418.984375 C 337.390625 419.460938 337.539062 419.925781 337.625 420.40625 L 346.308594 467.21875 L 361.671875 370.238281 L 390.617188 373.492188 L 372.015625 490.941406 L 349.867188 486.402344 L 353.570312 506.378906 L 369.03125 509.777344 L 362.199219 552.90625 L 365.601562 571.242188 C 367.710938 582.617188 365.265625 594.132812 358.714844 603.667969 C 357.050781 606.085938 355.171875 608.300781 353.109375 610.300781 L 350.574219 626.3125 L 333.832031 621.035156 C 332.867188 621.285156 331.90625 621.542969 330.914062 621.726562 C 328.296875 622.210938 325.625 622.457031 322.980469 622.457031 L 322.976562 622.457031 C 302.128906 622.457031 284.238281 607.5625 280.433594 587.035156 L 260.835938 481.371094 L 222.878906 490.753906 C 216.386719 493.292969 208.777344 493.878906 197.96875 494.019531 C 197.148438 494.027344 196.324219 494.035156 195.492188 494.035156 C 192.539062 494.035156 189.457031 493.953125 186.304688 493.746094 L 248.382812 552.484375 L 247.507812 725.660156 C 247.425781 741.890625 258.074219 755.667969 272.792969 760.28125 C 275.625 761.171875 278.617188 761.679688 281.703125 761.839844 L 244.167969 993.378906 L 248.011719 995.910156 L 262.28125 997.769531 L 276.894531 905.492188 L 303.929688 920.835938 L 287.875 1022.183594 L 292.015625 1024.910156 L 306.613281 1026.550781 L 494.179688 -156.339844 L 479.539062 -159.089844 L 474.761719 -157.773438 L 458.707031 -56.398438 L 428.253906 -50.160156 L 442.875 -142.46875 L 428.734375 -145.109375 L 396.675781 52.644531 C 400.054688 51.382812 403.632812 50.699219 407.234375 50.699219 C 408.921875 50.699219 410.574219 50.886719 412.207031 51.15625 L 424.582031 -26.980469 L 454.949219 -32.695312 L 437.417969 77.988281 C 438.347656 87.328125 434.851562 96.722656 427.863281 103.214844 L 433.507812 102.703125 L 415.308594 217.609375 L 387.09375 217.789062 C 386.886719 217.765625 386.679688 217.722656 386.46875 217.703125 L 380.726562 237.34375 C 377.972656 246.765625 370.785156 254.300781 361.5 257.5 L 319.128906 272.09375 L 295.074219 300.847656 L 281.503906 285.054688 L 228.148438 303.433594 C 224.949219 304.535156 221.628906 305.09375 218.273438 305.09375 C 205.34375 305.09375 193.824219 296.875 189.613281 284.640625 C 186.972656 276.988281 187.476562 268.761719 191.023438 261.480469 C 194.570312 254.203125 200.746094 248.742188 208.398438 246.101562 L 238.734375 235.65625 C 237.597656 234.652344 236.390625 233.777344 235.117188 233.035156 C 231.292969 229.730469 226.859375 227.292969 221.84375 226.042969 C 197.195312 219.902344 161.464844 233.285156 146.925781 275.5625 C 138.003906 302.011719 132.292969 324.269531 129.382812 346.691406 Z M 307.683594 897.101562 L 280.570312 882.28125 L 298.117188 771.5 L 325.628906 783.816406 Z M 329.128906 761.707031 L 307.800781 752.5625 C 315.042969 746 319.640625 736.566406 319.695312 726.023438 L 320.140625 637.773438 L 347.328125 646.800781 Z M 393.605469 354.628906 L 364.59375 351.789062 L 376.710938 275.269531 L 386.144531 263.996094 L 389.378906 263.292969 C 401.097656 260.746094 408.785156 249.722656 407.414062 238.054688 L 412.0625 238.097656 Z M 393.605469 354.628906 " fill-opacity="1" fill-rule="nonzero"/></g><path fill="#2d4feb" d="M 210.753906 252.929688 C 198.691406 257.082031 192.28125 270.230469 196.4375 282.292969 C 199.734375 291.863281 208.6875 297.875 218.277344 297.875 C 220.769531 297.875 223.304688 297.464844 225.796875 296.609375 L 359.148438 250.675781 C 366.234375 248.234375 371.695312 242.507812 373.796875 235.316406 L 411.964844 104.785156 L 418.363281 101.277344 C 429.550781 95.140625 433.644531 81.101562 427.511719 69.914062 C 421.378906 58.730469 407.332031 54.636719 396.152344 60.765625 L 381.371094 68.871094 C 376.003906 71.816406 372.023438 76.769531 370.304688 82.644531 L 332.808594 210.886719 Z M 210.753906 252.929688 " fill-opacity="1" fill-rule="nonzero"/></svg>