<svg xmlns="http://www.w3.org/2000/svg" xmlns:xlink="http://www.w3.org/1999/xlink" width="1920" zoomAndPan="magnify" viewBox="0 0 1440 809.999993" height="1080" preserveAspectRatio="xMidYMid meet" version="1.0"><defs><clipPath id="d774d087c8"><path d="M 183 0 L 648 0 L 648 781 L 183 781 Z M 183 0 " clip-rule="nonzero"/></clipPath></defs><path fill="#2d4feb" d="M 457.644531 207.578125 C 457.644531 208.683594 457.617188 209.792969 457.5625 210.894531 C 457.507812 212 457.425781 213.105469 457.320312 214.207031 C 457.210938 215.308594 457.074219 216.40625 456.914062 217.5 C 456.75 218.59375 456.5625 219.683594 456.34375 220.769531 C 456.128906 221.855469 455.886719 222.933594 455.617188 224.007812 C 455.347656 225.082031 455.054688 226.148438 454.734375 227.207031 C 454.410156 228.265625 454.066406 229.316406 453.691406 230.355469 C 453.320312 231.398438 452.921875 232.429688 452.496094 233.453125 C 452.074219 234.476562 451.625 235.488281 451.152344 236.488281 C 450.679688 237.488281 450.183594 238.476562 449.660156 239.453125 C 449.140625 240.425781 448.59375 241.390625 448.023438 242.339844 C 447.457031 243.289062 446.863281 244.222656 446.25 245.144531 C 445.636719 246.0625 444.996094 246.96875 444.339844 247.855469 C 443.679688 248.746094 443 249.617188 442.296875 250.472656 C 441.59375 251.328125 440.871094 252.164062 440.128906 252.984375 C 439.386719 253.804688 438.625 254.605469 437.839844 255.386719 C 437.058594 256.171875 436.257812 256.933594 435.4375 257.675781 C 434.617188 258.421875 433.78125 259.140625 432.925781 259.84375 C 432.070312 260.546875 431.195312 261.226562 430.308594 261.886719 C 429.417969 262.546875 428.515625 263.183594 427.59375 263.796875 C 426.675781 264.410156 425.742188 265.003906 424.792969 265.574219 C 423.84375 266.140625 422.878906 266.6875 421.902344 267.207031 C 420.929688 267.730469 419.941406 268.226562 418.941406 268.699219 C 417.9375 269.171875 416.929688 269.621094 415.90625 270.046875 C 414.882812 270.46875 413.851562 270.867188 412.808594 271.238281 C 411.765625 271.613281 410.71875 271.960938 409.660156 272.28125 C 408.597656 272.601562 407.535156 272.898438 406.460938 273.164062 C 405.386719 273.433594 404.308594 273.675781 403.222656 273.894531 C 402.136719 274.109375 401.046875 274.296875 399.953125 274.460938 C 398.859375 274.621094 397.757812 274.757812 396.660156 274.867188 C 395.558594 274.976562 394.453125 275.054688 393.347656 275.109375 C 392.242188 275.164062 391.136719 275.191406 390.03125 275.191406 C 388.925781 275.191406 387.820312 275.164062 386.714844 275.109375 C 385.609375 275.054688 384.503906 274.976562 383.402344 274.867188 C 382.300781 274.757812 381.203125 274.621094 380.109375 274.460938 C 379.015625 274.296875 377.925781 274.109375 376.839844 273.894531 C 375.753906 273.675781 374.675781 273.433594 373.601562 273.164062 C 372.527344 272.898438 371.464844 272.601562 370.402344 272.28125 C 369.34375 271.960938 368.292969 271.613281 367.253906 271.238281 C 366.210938 270.867188 365.179688 270.46875 364.15625 270.046875 C 363.132812 269.621094 362.121094 269.171875 361.121094 268.699219 C 360.121094 268.226562 359.132812 267.730469 358.160156 267.207031 C 357.183594 266.6875 356.21875 266.140625 355.269531 265.574219 C 354.320312 265.003906 353.386719 264.410156 352.46875 263.796875 C 351.546875 263.183594 350.644531 262.546875 349.753906 261.886719 C 348.863281 261.226562 347.992188 260.546875 347.136719 259.84375 C 346.28125 259.144531 345.445312 258.421875 344.625 257.675781 C 343.804688 256.933594 343.003906 256.171875 342.222656 255.386719 C 341.4375 254.605469 340.675781 253.804688 339.933594 252.984375 C 339.191406 252.164062 338.46875 251.328125 337.765625 250.472656 C 337.0625 249.617188 336.382812 248.746094 335.722656 247.855469 C 335.0625 246.96875 334.425781 246.0625 333.8125 245.144531 C 333.199219 244.222656 332.605469 243.289062 332.039062 242.339844 C 331.46875 241.390625 330.921875 240.425781 330.402344 239.453125 C 329.878906 238.476562 329.382812 237.488281 328.910156 236.488281 C 328.4375 235.488281 327.988281 234.476562 327.566406 233.453125 C 327.140625 232.429688 326.742188 231.398438 326.371094 230.355469 C 325.996094 229.316406 325.648438 228.265625 325.328125 227.207031 C 325.007812 226.148438 324.714844 225.082031 324.445312 224.007812 C 324.175781 222.933594 323.933594 221.855469 323.71875 220.769531 C 323.5 219.683594 323.3125 218.59375 323.148438 217.5 C 322.988281 216.40625 322.851562 215.308594 322.742188 214.207031 C 322.636719 213.105469 322.554688 212 322.5 210.894531 C 322.445312 209.792969 322.417969 208.683594 322.417969 207.578125 C 322.417969 206.472656 322.445312 205.367188 322.5 204.261719 C 322.554688 203.15625 322.636719 202.050781 322.742188 200.953125 C 322.851562 199.851562 322.988281 198.753906 323.148438 197.65625 C 323.3125 196.5625 323.5 195.472656 323.71875 194.386719 C 323.933594 193.300781 324.175781 192.222656 324.445312 191.148438 C 324.714844 190.078125 325.007812 189.011719 325.328125 187.953125 C 325.648438 186.894531 325.996094 185.84375 326.371094 184.800781 C 326.742188 183.757812 327.140625 182.726562 327.566406 181.703125 C 327.988281 180.683594 328.4375 179.671875 328.910156 178.671875 C 329.382812 177.671875 329.878906 176.683594 330.402344 175.707031 C 330.921875 174.730469 331.46875 173.765625 332.039062 172.820312 C 332.605469 171.871094 333.199219 170.933594 333.8125 170.015625 C 334.425781 169.09375 335.0625 168.191406 335.722656 167.300781 C 336.382812 166.414062 337.0625 165.539062 337.765625 164.683594 C 338.46875 163.828125 339.191406 162.992188 339.933594 162.171875 C 340.675781 161.351562 341.4375 160.550781 342.222656 159.769531 C 343.003906 158.988281 343.804688 158.222656 344.625 157.480469 C 345.445312 156.738281 346.28125 156.015625 347.136719 155.3125 C 347.992188 154.609375 348.863281 153.929688 349.753906 153.269531 C 350.644531 152.613281 351.546875 151.976562 352.46875 151.359375 C 353.386719 150.746094 354.320312 150.152344 355.269531 149.585938 C 356.21875 149.015625 357.183594 148.46875 358.160156 147.949219 C 359.132812 147.425781 360.121094 146.929688 361.121094 146.457031 C 362.121094 145.984375 363.132812 145.535156 364.15625 145.113281 C 365.179688 144.6875 366.210938 144.289062 367.253906 143.917969 C 368.292969 143.546875 369.34375 143.199219 370.402344 142.875 C 371.464844 142.554688 372.527344 142.261719 373.601562 141.992188 C 374.675781 141.722656 375.753906 141.480469 376.839844 141.265625 C 377.925781 141.046875 379.015625 140.859375 380.109375 140.695312 C 381.203125 140.535156 382.300781 140.398438 383.402344 140.289062 C 384.503906 140.183594 385.609375 140.101562 386.714844 140.046875 C 387.820312 139.992188 388.925781 139.964844 390.03125 139.964844 C 391.136719 139.964844 392.242188 139.992188 393.347656 140.046875 C 394.453125 140.101562 395.558594 140.183594 396.660156 140.289062 C 397.757812 140.398438 398.859375 140.535156 399.953125 140.695312 C 401.046875 140.859375 402.136719 141.046875 403.222656 141.265625 C 404.308594 141.480469 405.386719 141.722656 406.460938 141.992188 C 407.535156 142.261719 408.597656 142.554688 409.660156 142.875 C 410.71875 143.199219 411.765625 143.546875 412.808594 143.917969 C 413.851562 144.289062 414.882812 144.6875 415.90625 145.113281 C 416.929688 145.535156 417.9375 145.984375 418.941406 146.457031 C 419.941406 146.929688 420.929688 147.425781 421.902344 147.949219 C 422.878906 148.46875 423.84375 149.015625 424.792969 149.585938 C 425.742188 150.152344 426.675781 150.746094 427.59375 151.359375 C 428.515625 151.976562 429.417969 152.613281 430.308594 153.269531 C 431.195312 153.929688 432.070312 154.609375 432.925781 155.3125 C 433.78125 156.015625 434.617188 156.738281 435.4375 157.480469 C 436.257812 158.222656 437.058594 158.988281 437.839844 159.769531 C 438.625 160.550781 439.386719 161.351562 440.128906 162.171875 C 440.871094 162.992188 441.59375 163.828125 442.296875 164.683594 C 443 165.539062 443.679688 166.414062 444.339844 167.300781 C 444.996094 168.191406 445.636719 169.09375 446.25 170.015625 C 446.863281 170.933594 447.457031 171.871094 448.023438 172.820312 C 448.59375 173.765625 449.140625 174.730469 449.660156 175.707031 C 450.183594 176.683594 450.679688 177.671875 451.152344 178.671875 C 451.625 179.671875 452.074219 180.683594 452.496094 181.703125 C 452.921875 182.726562 453.320312 183.757812 453.691406 184.800781 C 454.066406 185.84375 454.410156 186.894531 454.734375 187.953125 C 455.054688 189.011719 455.347656 190.078125 455.617188 191.148438 C 455.886719 192.222656 456.128906 193.300781 456.34375 194.386719 C 456.5625 195.472656 456.75 196.5625 456.914062 197.65625 C 457.074219 198.753906 457.210938 199.851562 457.320312 200.953125 C 457.425781 202.050781 457.507812 203.15625 457.5625 204.261719 C 457.617188 205.367188 457.644531 206.472656 457.644531 207.578125 Z M 457.644531 207.578125 " fill-opacity="1" fill-rule="nonzero"/><path fill="#2d4feb" d="M 0 638.757812 C 0 658.636719 16.117188 674.757812 36 674.757812 L 185.304688 674.757812 C 198.386719 674.757812 210.433594 667.664062 216.78125 656.230469 L 267.570312 564.75 C 270.078125 564.25 272.53125 563.59375 274.933594 562.753906 L 357.984375 623.730469 L 342.476562 770.203125 C 340.378906 789.976562 354.710938 807.699219 374.480469 809.792969 C 375.773438 809.933594 377.050781 810 378.320312 810 C 396.496094 809.996094 412.117188 796.269531 414.070312 777.789062 L 431.757812 610.746094 C 433.109375 598.007812 427.589844 585.511719 417.265625 577.933594 L 317.371094 504.59375 L 356.410156 398.757812 L 371.035156 450.71875 C 374.453125 462.867188 384.804688 471.808594 397.324219 473.425781 L 501.53125 486.882812 C 502.902344 487.058594 504.261719 487.148438 505.605469 487.148438 C 521.207031 487.148438 534.753906 475.558594 536.804688 459.679688 C 539.035156 442.425781 526.851562 426.628906 509.601562 424.402344 L 426.039062 413.613281 L 400.664062 323.453125 C 396.296875 307.933594 385.511719 294.933594 371.070312 287.777344 L 333.441406 269.125 C 323.800781 264.339844 312.882812 264.988281 304.125 269.863281 L 174.800781 313.144531 C 167.453125 315.601562 161.265625 320.683594 157.429688 327.414062 L 97.679688 432.28125 C 89.066406 447.398438 94.339844 466.632812 109.449219 475.246094 C 114.371094 478.046875 119.730469 479.382812 125.015625 479.382812 C 135.964844 479.382812 146.605469 473.664062 152.414062 463.472656 L 206.207031 369.0625 L 258.734375 351.484375 L 206.457031 493.199219 C 202.164062 504.839844 202.191406 516.992188 205.632812 527.980469 L 164.117188 602.757812 L 36 602.757812 C 16.117188 602.757812 0 618.878906 0 638.757812 Z M 0 638.757812 " fill-opacity="1" fill-rule="nonzero"/><g clip-path="url(#d774d087c8)"><path fill="#2d4feb" d="M 634.601562 0 L 197.425781 0 C 189.96875 0 183.925781 6.042969 183.925781 13.5 L 183.925781 271.320312 C 183.925781 278.777344 189.96875 284.820312 197.425781 284.820312 C 204.882812 284.820312 210.925781 278.777344 210.925781 271.320312 L 210.925781 27 L 621.101562 27 L 621.101562 753.234375 L 455.65625 753.234375 C 448.199219 753.234375 442.15625 759.273438 442.15625 766.734375 C 442.15625 774.191406 448.199219 780.234375 455.65625 780.234375 L 634.601562 780.234375 C 642.058594 780.234375 648.101562 774.191406 648.101562 766.734375 L 648.101562 13.5 C 648.101562 6.042969 642.058594 0 634.601562 0 Z M 634.601562 0 " fill-opacity="1" fill-rule="nonzero"/></g><path fill="#2d4feb" d="M 197.425781 690.746094 C 189.96875 690.746094 183.925781 696.789062 183.925781 704.246094 L 183.925781 766.734375 C 183.925781 774.191406 189.96875 780.234375 197.425781 780.234375 L 302.878906 780.234375 C 310.335938 780.234375 316.378906 774.191406 316.378906 766.734375 C 316.378906 759.273438 310.335938 753.234375 302.878906 753.234375 L 210.925781 753.234375 L 210.925781 704.246094 C 210.925781 696.789062 204.882812 690.746094 197.425781 690.746094 Z M 197.425781 690.746094 " fill-opacity="1" fill-rule="nonzero"/></svg>