<svg xmlns="http://www.w3.org/2000/svg" xmlns:xlink="http://www.w3.org/1999/xlink" width="1920" zoomAndPan="magnify" viewBox="0 0 1440 809.999993" height="1080" preserveAspectRatio="xMidYMid meet" version="1.0"><path fill="#2d4feb" d="M 183.789062 212.71875 C 188.382812 215.3125 193.234375 217.257812 198.34375 218.558594 C 203.457031 219.859375 208.648438 220.46875 213.921875 220.390625 C 215.917969 220.59375 217.917969 220.714844 219.921875 220.757812 C 221.929688 220.804688 223.929688 220.769531 225.933594 220.652344 C 227.9375 220.539062 229.929688 220.34375 231.917969 220.070312 C 233.902344 219.796875 235.875 219.445312 237.835938 219.019531 C 239.792969 218.589844 241.734375 218.082031 243.652344 217.5 C 245.570312 216.914062 247.464844 216.257812 249.332031 215.523438 C 251.195312 214.792969 253.03125 213.984375 254.835938 213.105469 C 256.636719 212.226562 258.402344 211.28125 260.128906 210.261719 C 261.855469 209.242188 263.542969 208.15625 265.183594 207.003906 C 266.824219 205.851562 268.417969 204.636719 269.960938 203.359375 C 271.507812 202.082031 273 200.742188 274.4375 199.347656 C 275.878906 197.949219 277.257812 196.5 278.582031 194.992188 C 279.90625 193.484375 281.167969 191.929688 282.371094 190.324219 C 283.570312 188.714844 284.707031 187.066406 285.777344 185.367188 C 286.84375 183.671875 287.847656 181.9375 288.777344 180.160156 C 289.710938 178.386719 290.570312 176.574219 291.359375 174.730469 C 296.929688 163.042969 297.292969 160.941406 297.292969 141.765625 C 297.292969 122.589844 297.292969 120.582031 291.359375 108.710938 C 289.316406 104.484375 286.933594 100.457031 284.207031 96.632812 C 281.484375 92.8125 278.457031 89.242188 275.128906 85.929688 C 271.804688 82.617188 268.222656 79.609375 264.382812 76.902344 C 260.546875 74.199219 256.511719 71.832031 252.277344 69.808594 C 248.1875 67.921875 243.960938 66.417969 239.597656 65.296875 C 235.238281 64.175781 230.8125 63.453125 226.316406 63.136719 C 221.828125 62.816406 217.34375 62.902344 212.867188 63.394531 C 208.390625 63.886719 203.992188 64.777344 199.675781 66.066406 C 192.84375 68.070312 186.339844 70.84375 180.164062 74.394531 C 173.992188 77.945312 168.320312 82.167969 163.152344 87.066406 C 125.894531 122.863281 136.394531 189.34375 183.789062 212.71875 Z M 183.789062 212.71875 " fill-opacity="1" fill-rule="nonzero"/><path fill="#2d4feb" d="M 721.824219 423.476562 C 721.457031 420.636719 720.789062 417.867188 719.820312 415.171875 C 718.855469 412.472656 717.609375 409.914062 716.089844 407.484375 C 714.566406 405.058594 712.804688 402.820312 710.800781 400.773438 C 708.796875 398.730469 706.59375 396.921875 704.199219 395.351562 C 696.527344 390.328125 691.6875 388.683594 630.324219 370.96875 C 606.855469 364.121094 573.34375 354.078125 556.265625 348.507812 C 521.839844 337.273438 505.859375 334.71875 492.34375 338.460938 C 480.875 343.097656 469.917969 348.730469 459.472656 355.355469 C 450.453125 361.304688 440.894531 366.207031 430.796875 370.054688 C 423.585938 370.054688 419.65625 364.304688 401.578125 328.234375 C 378.929688 283.214844 379.480469 284.492188 388.976562 284.492188 C 392.992188 284.492188 407.238281 285.40625 419.839844 286.503906 C 446.414062 288.96875 456.367188 287.414062 467.050781 279.472656 C 477.734375 271.527344 480.292969 262.121094 482.300781 229.976562 C 483.214844 214.363281 484.949219 190.347656 485.863281 176.558594 C 491.066406 107.339844 490.882812 104.234375 479.742188 91.542969 C 479.082031 90.726562 478.382812 89.9375 477.652344 89.183594 C 476.917969 88.425781 476.15625 87.703125 475.363281 87.011719 C 474.566406 86.320312 473.746094 85.667969 472.894531 85.046875 C 472.042969 84.425781 471.167969 83.84375 470.265625 83.300781 C 469.367188 82.757812 468.441406 82.253906 467.5 81.789062 C 466.554688 81.328125 465.589844 80.902344 464.609375 80.523438 C 463.628906 80.140625 462.632812 79.804688 461.621094 79.511719 C 460.613281 79.214844 459.589844 78.964844 458.558594 78.757812 C 457.527344 78.550781 456.488281 78.390625 455.441406 78.273438 C 454.394531 78.15625 453.347656 78.085938 452.292969 78.058594 C 451.242188 78.035156 450.191406 78.054688 449.140625 78.117188 C 448.089844 78.183594 447.042969 78.292969 446.003906 78.449219 C 444.960938 78.605469 443.929688 78.804688 442.90625 79.050781 C 441.882812 79.292969 440.871094 79.582031 439.875 79.914062 C 438.875 80.246094 437.890625 80.621094 436.925781 81.039062 C 435.960938 81.453125 435.011719 81.914062 434.085938 82.410156 C 431.453125 83.78125 429.003906 85.425781 426.742188 87.339844 C 424.476562 89.257812 422.453125 91.402344 420.667969 93.773438 C 418.878906 96.140625 417.378906 98.679688 416.160156 101.386719 C 414.941406 104.089844 414.039062 106.898438 413.449219 109.804688 C 411.105469 125.457031 409.796875 141.191406 409.523438 157.015625 C 407.421875 199.84375 406.324219 204.5 397.375 206.691406 C 389.617188 207.101562 381.886719 206.796875 374.183594 205.777344 C 363.957031 204.683594 346.789062 203.769531 335.828125 203.769531 C 313.273438 203.769531 305.148438 205.960938 276.472656 220.117188 C 266.246094 225.136719 239.949219 237.007812 218.855469 246.324219 L 154.933594 274.8125 C 127.539062 286.867188 121.417969 288.238281 115.847656 282.667969 C 109.222656 271.519531 103.441406 259.953125 98.5 247.96875 C 75.671875 195.277344 66.539062 184.683594 43.253906 184.683594 C 41.726562 184.539062 40.195312 184.488281 38.664062 184.542969 C 37.132812 184.59375 35.609375 184.746094 34.097656 185 C 32.582031 185.25 31.09375 185.601562 29.625 186.046875 C 28.160156 186.496094 26.726562 187.035156 25.332031 187.671875 C 23.933594 188.304688 22.585938 189.027344 21.285156 189.835938 C 19.980469 190.648438 18.738281 191.539062 17.554688 192.515625 C 16.367188 193.488281 15.253906 194.535156 14.203125 195.65625 C 13.15625 196.773438 12.183594 197.957031 11.292969 199.203125 C 9.667969 201.335938 8.3125 203.621094 7.222656 206.070312 C 6.132812 208.515625 5.339844 211.054688 4.839844 213.683594 C 4.339844 216.316406 4.148438 218.96875 4.269531 221.644531 C 4.386719 224.320312 4.808594 226.945312 5.539062 229.519531 C 12.34375 248.25 20.226562 266.515625 29.191406 284.3125 C 41.0625 309.238281 53.480469 335.449219 56.585938 342.753906 C 67.726562 367.863281 74.117188 374.714844 89.734375 379.28125 C 101.96875 382.566406 121.695312 375.902344 181.050781 347.777344 C 186.707031 344.871094 192.675781 342.894531 198.945312 341.839844 C 206.984375 341.839844 214.835938 351.519531 224.058594 372.796875 C 233.28125 394.074219 249.992188 427.585938 267.617188 460.734375 C 283.050781 489.589844 294.007812 502.832031 310.625 511.871094 C 321.949219 518.445312 361.582031 532.964844 428.699219 555.246094 C 468.148438 568.488281 476.730469 572.777344 483.488281 583.371094 C 486.136719 587.023438 501.75 619.441406 519.285156 655.328125 C 536.816406 691.214844 552.15625 723.265625 554.441406 726.917969 C 556.835938 730.871094 559.742188 734.402344 563.160156 737.507812 C 566.578125 740.617188 570.367188 743.175781 574.53125 745.183594 C 576.332031 745.742188 578.160156 746.183594 580.015625 746.515625 C 581.875 746.847656 583.742188 747.0625 585.625 747.160156 C 587.507812 747.257812 589.390625 747.242188 591.273438 747.105469 C 593.152344 746.972656 595.019531 746.722656 596.867188 746.359375 C 598.71875 745.992188 600.539062 745.515625 602.328125 744.925781 C 604.121094 744.332031 605.867188 743.632812 607.570312 742.828125 C 609.277344 742.019531 610.921875 741.109375 612.515625 740.097656 C 614.105469 739.089844 615.628906 737.980469 617.082031 736.78125 C 620.007812 732.863281 622.441406 728.664062 624.386719 724.179688 C 630.871094 709.113281 629.226562 702.628906 606.855469 656.605469 C 552.066406 542.644531 542.113281 523.832031 536.542969 517.53125 C 528.140625 508.402344 515.175781 502.007812 477.003906 490.136719 C 437.191406 477.445312 433.082031 473.972656 441.664062 460.003906 C 447.234375 450.871094 457.28125 444.386719 500.289062 422.378906 C 511.246094 416.808594 519.464844 417.359375 546.953125 426.308594 C 561.289062 430.964844 594.4375 441.191406 620.460938 449.226562 C 663.5625 462.378906 669.40625 463.746094 683.925781 463.929688 C 698.445312 464.113281 700.273438 463.929688 706.753906 458.542969 C 708.023438 457.480469 709.222656 456.351562 710.359375 455.152344 C 711.492188 453.949219 712.550781 452.6875 713.539062 451.363281 C 714.523438 450.039062 715.429688 448.660156 716.253906 447.230469 C 717.082031 445.796875 717.820312 444.324219 718.472656 442.804688 C 719.125 441.289062 719.683594 439.738281 720.15625 438.15625 C 720.625 436.570312 721 434.964844 721.285156 433.339844 C 721.566406 431.710938 721.753906 430.074219 721.84375 428.421875 C 721.933594 426.773438 721.925781 425.125 721.824219 423.476562 Z M 721.824219 423.476562 " fill-opacity="1" fill-rule="nonzero"/></svg>