<svg xmlns="http://www.w3.org/2000/svg" xmlns:xlink="http://www.w3.org/1999/xlink" width="1920" zoomAndPan="magnify" viewBox="0 0 1440 809.999993" height="1080" preserveAspectRatio="xMidYMid meet" version="1.0"><path fill="#3e2914" d="M 334.390625 687.464844 C 352.359375 685.175781 503.863281 685.164062 544.765625 679.421875 C 581.222656 674.300781 579.496094 664.675781 577.746094 662.894531 C 570.339844 655.34375 526.402344 645.023438 490.15625 638.289062 C 489.886719 638.238281 489.621094 638.191406 489.351562 638.140625 C 485.273438 637.296875 466.488281 632.414062 453.59375 611.886719 C 449.496094 605.367188 446.699219 598.113281 445.058594 590.585938 C 444.414062 587.628906 443.730469 584.714844 442.980469 581.917969 C 442.96875 581.90625 442.964844 581.894531 442.96875 581.875 C 442.914062 581.675781 442.855469 581.472656 442.800781 581.273438 C 442.785156 581.246094 442.78125 581.214844 442.777344 581.1875 C 442.371094 579.710938 441.945312 578.265625 441.492188 576.875 C 441.488281 576.859375 441.484375 576.84375 441.480469 576.832031 C 437.28125 565.386719 427.980469 557.230469 427.027344 556.414062 C 426.976562 556.375 426.949219 556.351562 426.949219 556.351562 C 425.078125 554.90625 423.183594 553.621094 421.3125 552.449219 L 421.3125 317.527344 L 426.449219 317.527344 C 433.5625 317.527344 439.328125 311.765625 439.328125 304.652344 C 439.328125 297.539062 433.5625 291.773438 426.449219 291.773438 L 421.3125 291.773438 L 421.3125 109.320312 C 433.683594 109.320312 443.714844 99.289062 443.714844 86.917969 L 443.714844 48.640625 C 443.714844 36.269531 433.683594 26.238281 421.3125 26.238281 L 426.449219 26.238281 C 433.5625 26.238281 439.328125 20.472656 439.328125 13.363281 C 439.328125 6.25 433.566406 0.484375 426.453125 0.484375 L 17.261719 0.484375 C 10.152344 0.484375 4.386719 6.25 4.386719 13.363281 C 4.386719 20.472656 10.152344 26.238281 17.265625 26.238281 L 22.402344 26.238281 L 22.402344 26.667969 C 9.679688 28.878906 0 39.949219 0 53.300781 L 0 138.390625 C 0 150.761719 10.03125 160.792969 22.402344 160.792969 L 22.402344 291.773438 L 17.261719 291.773438 C 10.152344 291.773438 4.386719 297.539062 4.386719 304.652344 C 4.386719 311.765625 10.152344 317.527344 17.261719 317.527344 L 22.402344 317.527344 L 22.402344 583.066406 L 17.261719 583.066406 C 10.152344 583.066406 4.386719 588.828125 4.386719 595.941406 C 4.386719 603.054688 10.152344 608.820312 17.261719 608.820312 L 426.453125 608.820312 C 429.304688 608.820312 431.929688 607.882812 434.0625 606.3125 C 432.289062 616.179688 426.304688 625.777344 410.261719 627.003906 C 218.683594 641.675781 16.800781 635.453125 11.621094 667.046875 C 6.484375 698.398438 145.21875 699.425781 212.359375 713.21875 C 270.699219 725.207031 270.15625 739.820312 223.804688 757.773438 C 170.425781 778.445312 218.773438 799.429688 329.507812 803.972656 C 466.574219 809.597656 592.085938 797.511719 567.84375 766.023438 C 547.855469 740.058594 406.015625 729.085938 334.058594 706.726562 C 329.460938 705.300781 298.898438 691.980469 334.390625 687.464844 Z M 334.390625 687.464844 " fill-opacity="1" fill-rule="nonzero"/><path fill="#619bef" d="M 22.402344 24.867188 L 421.316406 24.867188 L 421.316406 584.4375 L 22.402344 584.4375 Z M 22.402344 24.867188 " fill-opacity="1" fill-rule="nonzero"/><path fill="#2d4feb" d="M 334.058594 706.726562 C 406.015625 729.085938 547.859375 740.058594 567.84375 766.023438 C 592.085938 797.511719 466.574219 809.597656 329.507812 803.972656 C 218.773438 799.429688 170.425781 778.445312 223.804688 757.773438 C 270.15625 739.820312 270.699219 725.207031 212.359375 713.21875 C 145.21875 699.425781 6.484375 698.398438 11.621094 667.046875 C 16.800781 635.453125 218.683594 641.679688 410.261719 627.003906 C 426.304688 625.777344 432.289062 616.179688 434.0625 606.3125 C 437.25 603.96875 439.328125 600.203125 439.328125 595.945312 C 439.328125 588.832031 433.566406 583.066406 426.453125 583.066406 L 421.316406 583.066406 L 421.316406 552.449219 C 423.183594 553.621094 425.082031 554.90625 426.949219 556.351562 C 426.949219 556.351562 426.976562 556.375 427.027344 556.414062 C 427.984375 557.234375 437.28125 565.382812 441.480469 576.832031 C 441.484375 576.84375 441.488281 576.859375 441.496094 576.875 C 441.949219 578.265625 442.375 579.710938 442.777344 581.1875 C 442.78125 581.21875 442.785156 581.246094 442.804688 581.273438 C 442.855469 581.472656 442.914062 581.675781 442.96875 581.875 C 442.964844 581.894531 442.96875 581.90625 442.980469 581.917969 C 443.730469 584.714844 444.414062 587.632812 445.058594 590.585938 C 446.703125 598.113281 449.5 605.363281 453.597656 611.886719 C 466.488281 632.414062 485.273438 637.296875 489.355469 638.140625 C 489.621094 638.191406 489.890625 638.238281 490.15625 638.289062 C 490.15625 638.289062 490.160156 638.289062 490.160156 638.289062 C 526.402344 645.023438 570.339844 655.34375 577.746094 662.894531 C 579.496094 664.675781 581.222656 674.300781 544.769531 679.421875 C 503.867188 685.164062 352.363281 685.175781 334.394531 687.464844 C 298.898438 691.980469 329.460938 705.300781 334.058594 706.726562 Z M 421.316406 26.238281 L 27.0625 26.238281 C 12.117188 26.238281 0 38.355469 0 53.300781 L 0 138.390625 C 0 150.761719 10.03125 160.792969 22.402344 160.792969 L 22.402344 88.613281 C 22.402344 75.410156 33.101562 64.710938 46.304688 64.710938 C 59.503906 64.710938 70.207031 75.410156 70.207031 88.613281 L 70.207031 134.109375 C 70.207031 154.164062 86.464844 170.425781 106.523438 170.425781 C 126.582031 170.425781 142.839844 154.164062 142.839844 134.109375 L 142.839844 113.824219 C 142.839844 102.1875 152.269531 92.757812 163.90625 92.757812 L 164.105469 92.757812 C 175.738281 92.757812 185.167969 83.328125 185.167969 71.695312 C 185.167969 60.058594 194.597656 50.628906 206.234375 50.628906 L 211.042969 50.628906 C 222.675781 50.628906 232.105469 60.058594 232.105469 71.695312 L 232.105469 172.0625 C 232.105469 183.003906 240.976562 191.871094 251.914062 191.871094 C 262.855469 191.871094 271.722656 183.003906 271.722656 172.0625 L 271.722656 72.015625 C 271.722656 60.253906 281.347656 50.410156 293.101562 50.632812 C 304.492188 50.851562 313.660156 60.15625 313.660156 71.601562 L 313.660156 90.726562 C 313.660156 102.945312 323.5625 112.851562 335.785156 112.851562 C 348.003906 112.851562 357.910156 122.757812 357.910156 134.976562 L 357.910156 152.941406 C 357.910156 160.777344 364.261719 167.132812 372.101562 167.132812 C 379.9375 167.132812 386.292969 160.777344 386.292969 152.941406 L 386.292969 85.65625 C 386.292969 75.980469 394.132812 68.140625 403.804688 68.140625 C 413.480469 68.140625 421.320312 75.980469 421.320312 85.65625 L 421.320312 109.320312 C 433.691406 109.320312 443.722656 99.289062 443.722656 86.917969 L 443.722656 48.640625 C 443.71875 36.269531 433.6875 26.238281 421.316406 26.238281 Z M 421.316406 26.238281 " fill-opacity="1" fill-rule="nonzero"/><path fill="#f8d462" d="M 314.894531 304.652344 C 314.894531 356.035156 273.242188 397.6875 221.859375 397.6875 C 170.476562 397.6875 128.824219 356.035156 128.824219 304.652344 C 128.824219 253.269531 170.476562 211.617188 221.859375 211.617188 C 273.242188 211.617188 314.894531 253.269531 314.894531 304.652344 Z M 314.894531 304.652344 " fill-opacity="1" fill-rule="nonzero"/><path fill="#3e2914" d="M 426.453125 608.820312 L 17.261719 608.820312 C 10.152344 608.820312 4.386719 603.054688 4.386719 595.941406 C 4.386719 588.828125 10.152344 583.066406 17.261719 583.066406 L 426.453125 583.066406 C 433.566406 583.066406 439.328125 588.828125 439.328125 595.941406 C 439.332031 603.054688 433.566406 608.820312 426.453125 608.820312 Z M 439.332031 13.363281 C 439.332031 6.25 433.566406 0.484375 426.453125 0.484375 L 17.261719 0.484375 C 10.152344 0.484375 4.386719 6.25 4.386719 13.363281 C 4.386719 20.472656 10.152344 26.238281 17.265625 26.238281 L 426.453125 26.238281 C 433.566406 26.238281 439.332031 20.472656 439.332031 13.363281 Z M 128.824219 304.652344 C 128.824219 300.28125 129.148438 295.984375 129.730469 291.773438 L 17.261719 291.773438 C 10.152344 291.773438 4.386719 297.539062 4.386719 304.652344 C 4.386719 311.765625 10.152344 317.527344 17.261719 317.527344 L 129.730469 317.527344 C 129.148438 313.320312 128.824219 309.023438 128.824219 304.652344 Z M 426.453125 291.777344 L 313.988281 291.777344 C 314.570312 295.988281 314.894531 300.28125 314.894531 304.652344 C 314.894531 309.023438 314.570312 313.320312 313.988281 317.53125 L 426.453125 317.53125 C 433.566406 317.53125 439.332031 311.765625 439.332031 304.652344 C 439.332031 297.539062 433.566406 291.777344 426.453125 291.777344 Z M 301.191406 304.652344 C 301.191406 260.90625 265.601562 225.320312 221.859375 225.320312 C 178.113281 225.320312 142.523438 260.910156 142.523438 304.652344 C 142.523438 348.398438 178.113281 383.988281 221.859375 383.988281 C 265.601562 383.988281 301.191406 348.398438 301.191406 304.652344 Z M 297.53125 304.652344 C 297.53125 346.378906 263.585938 380.324219 221.859375 380.324219 C 180.132812 380.324219 146.1875 346.378906 146.1875 304.652344 C 146.1875 262.925781 180.132812 228.980469 221.859375 228.980469 C 263.585938 228.980469 297.53125 262.925781 297.53125 304.652344 Z M 221.859375 292.765625 C 215.355469 292.765625 210.0625 298.058594 210.0625 304.5625 C 210.0625 311.066406 215.355469 316.355469 221.859375 316.355469 C 228.363281 316.355469 233.652344 311.066406 233.652344 304.5625 C 233.652344 298.058594 228.363281 292.765625 221.859375 292.765625 Z M 221.859375 284.898438 C 225.96875 284.898438 229.789062 286.164062 232.945312 288.332031 L 257.027344 253.074219 C 247.007812 246.214844 234.894531 242.1875 221.859375 242.1875 C 208.824219 242.1875 196.710938 246.214844 186.695312 253.074219 L 210.777344 288.332031 C 213.929688 286.164062 217.746094 284.898438 221.859375 284.898438 Z M 202.195312 304.5625 C 202.195312 303.96875 202.222656 303.378906 202.273438 302.800781 L 159.757812 298.96875 C 158.652344 311.066406 161.046875 323.601562 167.40625 334.980469 C 173.765625 346.363281 183.183594 354.976562 194.0625 360.371094 L 213.097656 322.15625 C 206.640625 318.933594 202.195312 312.257812 202.195312 304.5625 Z M 283.957031 298.96875 L 241.445312 302.800781 C 241.5 303.378906 241.523438 303.972656 241.523438 304.5625 C 241.523438 312.257812 237.078125 318.933594 230.621094 322.15625 L 249.65625 360.371094 C 260.535156 354.976562 269.957031 346.363281 276.308594 334.980469 C 282.667969 323.601562 285.066406 311.066406 283.957031 298.96875 Z M 283.957031 298.96875 " fill-opacity="1" fill-rule="nonzero"/></svg>